# xmcd
#
# Track frame offsets:
# 150
# 21414
# 43253
# 65283
# 83134
# 100149
# 121065
# 142207
# 159274
# 176567
# 192815
# 212651
#
# Disc length: 3100 seconds
#
#
# Revision: 0
# Processed by: cddbd v1.5.1PL2 Copyright (c) Steve Scherf et al.
# Submitted via: CDLP Version 5
#
DISCID=a20c1a0c
DTITLE=松浦亜弥 - Complete Selection (1)
DYEAR=1900
DGENRE=Misc
TTITLE0=待ち合わせ
TTITLE1=夕暮れ
TTITLE2=○○−女子高生の主張−
TTITLE3=Merry X'mas For You
TTITLE4=遠距離の恋愛
TTITLE5=つまんないよ・・・
TTITLE6=I Know
TTITLE7=Yokohama Sing A Song
TTITLE8=女の友情問題
TTITLE9=私の予定
TTITLE10=Do You Love Me?
TTITLE11=奇跡の香りダンス。
EXTD=
EXTT0=
EXTT1=
EXTT2=
EXTT3=
EXTT4=
EXTT5=
EXTT6=
EXTT7=
EXTT8=
EXTT9=
EXTT10=
EXTT11=
PLAYORDER=
